<?xml version="1.0" encoding="UTF-8"?>
<svg width="18px" height="18px" viewBox="0 0 18 18" version="1.1" xmlns="http://www.w3.org/2000/svg" xmlns:xlink="http://www.w3.org/1999/xlink">
    <!-- Generator: Sketch 48.2 (47327) - http://www.bohemiancoding.com/sketch -->
    <title>Combined-Shape-Copy-3 Copy 3</title>
    <desc>Created with Sketch.</desc>
    <defs></defs>
    <g id="Artboard-86-Copy-3" stroke="none" stroke-width="1" fill="none" fill-rule="evenodd" transform="translate(-314.000000, -27.000000)">
        <path d="M324.260448,25.0874422 C324.260448,24.6772573 323.944843,24.363961 323.555525,24.363961 L322.657679,24.363961 C322.27363,24.363961 321.952756,24.6878746 321.952756,25.0874422 L321.952756,34.9527556 L312.087442,34.9527556 C311.677257,34.9527556 311.363961,35.2683604 311.363961,35.6576786 L311.363961,36.5555248 C311.363961,36.9395731 311.687875,37.2604479 312.087442,37.2604479 L321.952756,37.2604479 L321.952756,47.1257612 C321.952756,47.5359461 322.26836,47.8492424 322.657679,47.8492424 L323.555525,47.8492424 C323.939573,47.8492424 324.260448,47.5253288 324.260448,47.1257612 L324.260448,37.2604479 L334.125761,37.2604479 C334.535946,37.2604479 334.849242,36.9448431 334.849242,36.5555248 L334.849242,35.6576786 C334.849242,35.2736303 334.525329,34.9527556 334.125761,34.9527556 L324.260448,34.9527556 L324.260448,25.0874422 Z" id="Combined-Shape-Copy-3-Copy-3" fill="#000000" transform="translate(323.106602, 36.106602) rotate(-45.000000) translate(-323.106602, -36.106602) "></path>
    </g>
</svg>