<?xml version="1.0" encoding="UTF-8"?>
<svg width="40px" height="40px" viewBox="0 0 40 40" version="1.1" xmlns="http://www.w3.org/2000/svg" xmlns:xlink="http://www.w3.org/1999/xlink">
    <!-- Generator: Sketch 48.2 (47327) - http://www.bohemiancoding.com/sketch -->
    <title>LinkedIn_Logo</title>
    <desc>Created with Sketch.</desc>
    <defs></defs>
    <g id="Page-1" stroke="none" stroke-width="1" fill="none" fill-rule="evenodd">
        <g id="LinkedIn_Logo" transform="translate(0.000000, -1.000000)" fill="#000000" fill-rule="nonzero">
            <g id="g3019" transform="translate(19.823722, 20.794838) scale(-1, 1) rotate(-180.000000) translate(-19.823722, -20.794838) translate(0.323722, 0.794838)">
                <path d="M0.129243664,36.592086 L0.129243664,3.0925318 C0.129243664,1.54548219 1.4147421,0.291541265 3.00055939,0.291541265 L36.1129594,0.291541265 C37.6987244,0.291541265 38.9842751,1.54548219 38.9842751,3.0925318 L38.9842751,36.592086 C38.9842751,38.1386132 37.6987244,39.3930766 36.1129594,39.3930766 L3.00055939,39.3930766 C1.4147421,39.3930766 0.129243664,38.1386132 0.129243664,36.592086 Z M11.9074063,6.66103868 L6.0387015,6.66103868 L6.0387015,24.3175718 L11.9074063,24.3175718 L11.9074063,6.66103868 Z M8.97302776,26.7282733 L8.97292326,26.7282733 L8.93478256,26.7282733 C6.9653116,26.7282733 5.69177785,28.0840969 5.69177785,29.7784845 C5.69177785,31.5110129 7.00434051,32.8292183 9.01184768,32.8292183 C11.0195638,32.8292183 12.2552181,31.5110129 12.2933588,29.7784845 C12.2933588,28.0840969 11.0195638,26.7282733 8.97302776,26.7282733 Z M15.1547475,6.66103868 C15.1547475,6.66103868 15.2319171,22.6608024 15.1549043,24.3175718 L21.0235568,24.3175718 L21.0235568,21.75692 L20.9843711,21.75692 C21.7565897,22.9622707 23.1464788,24.7318948 26.3124706,24.7318948 C30.1736159,24.7318948 33.0689133,22.2083387 33.0689133,16.7850442 L33.0689133,6.66103868 L27.200731,6.66103868 L27.200731,16.1068712 C27.200731,18.4804768 26.3512383,20.099628 24.2276371,20.099628 C22.6063959,20.099628 21.6407569,19.0076545 21.2165069,17.9532992 C21.0615407,17.5760719 21.0234,17.0488943 21.0234,16.5211941 L21.0234,6.66103868 L15.1547475,6.66103868 Z" id="Combined-Shape"></path>
            </g>
        </g>
    </g>
</svg>