<?xml version="1.0" encoding="UTF-8"?>
<svg width="40px" height="32px" viewBox="0 0 40 32" version="1.1" xmlns="http://www.w3.org/2000/svg" xmlns:xlink="http://www.w3.org/1999/xlink">
    <!-- Generator: Sketch 48.2 (47327) - http://www.bohemiancoding.com/sketch -->
    <title>Shape</title>
    <desc>Created with Sketch.</desc>
    <defs></defs>
    <g id="Page-1" stroke="none" stroke-width="1" fill="none" fill-rule="evenodd">
        <path d="M35.9183673,9.02362205 C35.9183673,8.67716535 35.9183673,8.33070866 35.9023609,7.98425197 C37.5030012,6.8503937 38.8955582,5.41732283 40,3.79527559 C38.527411,4.44094488 36.9427771,4.86614173 35.2781112,5.07086614 C36.9747899,4.07874016 38.2713085,2.48818898 38.8955582,0.598425197 C37.3109244,1.52755906 35.5502201,2.18897638 33.677471,2.5511811 C32.1728691,0.976377953 30.0440176,0 27.6910764,0 C23.1612645,0 19.4797919,3.62204724 19.4797919,8.07874016 C19.4797919,8.70866142 19.5598239,9.32283465 19.6878752,9.92125984 C12.8691477,9.59055118 6.81872749,6.36220472 2.76910764,1.48031496 C2.06482593,2.67716535 1.66466587,4.06299213 1.66466587,5.54330709 C1.66466587,8.34645669 3.1212485,10.8188976 5.31412565,12.2677165 C3.96958784,12.2204724 2.70508203,11.8582677 1.60064026,11.2598425 C1.60064026,11.2913386 1.60064026,11.3228346 1.60064026,11.3700787 C1.60064026,15.2755906 4.43377351,18.5511811 8.17927171,19.2913386 C7.4909964,19.480315 6.77070828,19.5748031 6.01840736,19.5748031 C5.49019608,19.5748031 4.9779912,19.5275591 4.48179272,19.4330709 C5.52220888,22.6456693 8.56342537,24.976378 12.1488595,25.0393701 C9.33173269,27.2125984 5.79431773,28.503937 1.95278111,28.503937 C1.29651861,28.503937 0.640256102,28.4724409 0,28.3937008 C3.61744698,30.6614173 7.93917567,32 12.565026,32 C27.6590636,32 35.9183673,19.6850394 35.9183673,9.02362205 Z" id="Shape" fill="#000000" fill-rule="nonzero"></path>
    </g>
</svg>